<svg xmlns="http://www.w3.org/2000/svg" xmlns:xlink="http://www.w3.org/1999/xlink" id="Layer_1" x="0" y="0" version="1.1" viewBox="0 0 1000 1000" xml:space="preserve" style="enable-background:new 0 0 1000 1000"><style type="text/css">.st0{fill-rule:evenodd;clip-rule:evenodd}</style><path d="M1000,1H0v999h4c0.1-1.5,1.4-2.8,3-2.8s2.9,1.2,3,2.8h4.2c0.1-1.5,1.4-2.8,3-2.8c1.6,0,2.9,1.2,3,2.8h4.2 c0.1-1.5,1.4-2.8,3-2.8c1.6,0,2.9,1.2,3,2.8h4.2c0.1-1.5,1.4-2.8,3-2.8c1.6,0,2.9,1.2,3,2.8h4.2c0.1-1.5,1.4-2.8,3-2.8 s2.9,1.2,3,2.8h4.2c0.1-1.5,1.4-2.8,3-2.8c1.6,0,2.9,1.2,3,2.8h4.2c0.1-1.5,1.4-2.8,3-2.8c1.6,0,2.9,1.2,3,2.8h4.2 c0.1-1.5,1.4-2.8,3-2.8c1.6,0,2.9,1.2,3,2.8h4.2c0.1-1.5,1.4-2.8,3-2.8c1.6,0,2.9,1.2,3,2.8H96c0.1-1.5,1.4-2.8,3-2.8 c1.6,0,2.9,1.2,3,2.8h4.2c0.1-1.5,1.4-2.8,3-2.8s2.9,1.2,3,2.8h4.2c0.1-1.5,1.4-2.8,3-2.8c1.6,0,2.9,1.2,3,2.8h0.6h3h1 c0.1-1.5,1.4-2.8,3-2.8s2.9,1.2,3,2.8h4.2c0.1-1.5,1.4-2.8,3-2.8c1.6,0,2.9,1.2,3,2.8h4.2c0.1-1.5,1.4-2.8,3-2.8 c1.6,0,2.9,1.2,3,2.8h4.2c0.1-1.5,1.4-2.8,3-2.8c1.6,0,2.9,1.2,3,2.8h4.2c0.1-1.5,1.4-2.8,3-2.8s2.9,1.2,3,2.8h4.2 c0.1-1.5,1.4-2.8,3-2.8c1.6,0,2.9,1.2,3,2.8h4.2c0.1-1.5,1.4-2.8,3-2.8c1.6,0,2.9,1.2,3,2.8h4.2c0.1-1.5,1.4-2.8,3-2.8 c1.6,0,2.9,1.2,3,2.8h4.2c0.1-1.5,1.4-2.8,3-2.8c1.6,0,2.9,1.2,3,2.8h4.2c0.1-1.5,1.4-2.8,3-2.8c1.6,0,2.9,1.2,3,2.8h4.2 c0.1-1.5,1.4-2.8,3-2.8s2.9,1.2,3,2.8h4.2c0.1-1.5,1.4-2.8,3-2.8c1.6,0,2.9,1.2,3,2.8h0.6h3h1c0.1-1.5,1.4-2.8,3-2.8s2.9,1.2,3,2.8 h4.2c0.1-1.5,1.4-2.8,3-2.8c1.6,0,2.9,1.2,3,2.8h4.2c0.1-1.5,1.4-2.8,3-2.8c1.6,0,2.9,1.2,3,2.8h4.2c0.1-1.5,1.4-2.8,3-2.8 c1.6,0,2.9,1.2,3,2.8h4.2c0.1-1.5,1.4-2.8,3-2.8s2.9,1.2,3,2.8h4.2c0.1-1.5,1.4-2.8,3-2.8c1.6,0,2.9,1.2,3,2.8h4.2 c0.1-1.5,1.4-2.8,3-2.8c1.6,0,2.9,1.2,3,2.8h4.2c0.1-1.5,1.4-2.8,3-2.8c1.6,0,2.9,1.2,3,2.8h4.2c0.1-1.5,1.4-2.8,3-2.8 c1.6,0,2.9,1.2,3,2.8h4.2c0.1-1.5,1.4-2.8,3-2.8c1.6,0,2.9,1.2,3,2.8h4.2c0.1-1.5,1.4-2.8,3-2.8s2.9,1.2,3,2.8h4.2 c0.1-1.5,1.4-2.8,3-2.8c1.6,0,2.9,1.2,3,2.8h0.6h3h1c0.1-1.5,1.4-2.8,3-2.8s2.9,1.2,3,2.8h4.2c0.1-1.5,1.4-2.8,3-2.8 c1.6,0,2.9,1.2,3,2.8h4.2c0.1-1.5,1.4-2.8,3-2.8c1.6,0,2.9,1.2,3,2.8h4.2c0.1-1.5,1.4-2.8,3-2.8c1.6,0,2.9,1.2,3,2.8h4.2 c0.1-1.5,1.4-2.8,3-2.8s2.9,1.2,3,2.8h4.2c0.1-1.5,1.4-2.8,3-2.8c1.6,0,2.9,1.2,3,2.8h4.2c0.1-1.5,1.4-2.8,3-2.8 c1.6,0,2.9,1.2,3,2.8h4.2c0.1-1.5,1.4-2.8,3-2.8c1.6,0,2.9,1.2,3,2.8h4.2c0.1-1.5,1.4-2.8,3-2.8c1.6,0,2.9,1.2,3,2.8h4.2 c0.1-1.5,1.4-2.8,3-2.8c1.6,0,2.9,1.2,3,2.8h4.2c0.1-1.5,1.4-2.8,3-2.8s2.9,1.2,3,2.8h4.2c0.1-1.5,1.4-2.8,3-2.8 c1.6,0,2.9,1.2,3,2.8h0.6h3h1c0.1-1.5,1.4-2.8,3-2.8s2.9,1.2,3,2.8h4.2c0.1-1.5,1.4-2.8,3-2.8c1.6,0,2.9,1.2,3,2.8h4.2 c0.1-1.5,1.4-2.8,3-2.8c1.6,0,2.9,1.2,3,2.8h4.2c0.1-1.5,1.4-2.8,3-2.8c1.6,0,2.9,1.2,3,2.8h4.2c0.1-1.5,1.4-2.8,3-2.8 s2.9,1.2,3,2.8h4.2c0.1-1.5,1.4-2.8,3-2.8c1.6,0,2.9,1.2,3,2.8h4.2c0.1-1.5,1.4-2.8,3-2.8c1.6,0,2.9,1.2,3,2.8h4.2 c0.1-1.5,1.4-2.8,3-2.8c1.6,0,2.9,1.2,3,2.8h4.2c0.1-1.5,1.4-2.8,3-2.8c1.6,0,2.9,1.2,3,2.8h4.2c0.1-1.5,1.4-2.8,3-2.8 c1.6,0,2.9,1.2,3,2.8h4.2c0.1-1.5,1.4-2.8,3-2.8s2.9,1.2,3,2.8h4.2c0.1-1.5,1.4-2.8,3-2.8c1.6,0,2.9,1.2,3,2.8h0.6h3h1 c0.1-1.5,1.4-2.8,3-2.8s2.9,1.2,3,2.8h4.2c0.1-1.5,1.4-2.8,3-2.8c1.6,0,2.9,1.2,3,2.8h4.2c0.1-1.5,1.4-2.8,3-2.8 c1.6,0,2.9,1.2,3,2.8h4.2c0.1-1.5,1.4-2.8,3-2.8c1.6,0,2.9,1.2,3,2.8h4.2c0.1-1.5,1.4-2.8,3-2.8s2.9,1.2,3,2.8h4.2 c0.1-1.5,1.4-2.8,3-2.8c1.6,0,2.9,1.2,3,2.8h4.2c0.1-1.5,1.4-2.8,3-2.8c1.6,0,2.9,1.2,3,2.8h4.2c0.1-1.5,1.4-2.8,3-2.8 c1.6,0,2.9,1.2,3,2.8h4.2c0.1-1.5,1.4-2.8,3-2.8c1.6,0,2.9,1.2,3,2.8h4.2c0.1-1.5,1.4-2.8,3-2.8c1.6,0,2.9,1.2,3,2.8h4.2 c0.1-1.5,1.4-2.8,3-2.8s2.9,1.2,3,2.8h4.2c0.1-1.5,1.4-2.8,3-2.8c1.6,0,2.9,1.2,3,2.8h0.6h3h1c0.1-1.5,1.4-2.8,3-2.8s2.9,1.2,3,2.8 h4.2c0.1-1.5,1.4-2.8,3-2.8c1.6,0,2.9,1.2,3,2.8h4.2c0.1-1.5,1.4-2.8,3-2.8c1.6,0,2.9,1.2,3,2.8h4.2c0.1-1.5,1.4-2.8,3-2.8 c1.6,0,2.9,1.2,3,2.8h4.2c0.1-1.5,1.4-2.8,3-2.8s2.9,1.2,3,2.8h4.2c0.1-1.5,1.4-2.8,3-2.8c1.6,0,2.9,1.2,3,2.8h4.2 c0.1-1.5,1.4-2.8,3-2.8c1.6,0,2.9,1.2,3,2.8h4.2c0.1-1.5,1.4-2.8,3-2.8c1.6,0,2.9,1.2,3,2.8h4.2c0.1-1.5,1.4-2.8,3-2.8 c1.6,0,2.9,1.2,3,2.8h4.2c0.1-1.5,1.4-2.8,3-2.8c1.6,0,2.9,1.2,3,2.8h4.2c0.1-1.5,1.4-2.8,3-2.8s2.9,1.2,3,2.8h4.2 c0.1-1.5,1.4-2.8,3-2.8c1.6,0,2.9,1.2,3,2.8h0.6h3h1c0.1-1.5,1.4-2.8,3-2.8s2.9,1.2,3,2.8h4.2c0.1-1.5,1.4-2.8,3-2.8 c1.6,0,2.9,1.2,3,2.8h4.2c0.1-1.5,1.4-2.8,3-2.8c1.6,0,2.9,1.2,3,2.8h4.2c0.1-1.5,1.4-2.8,3-2.8c1.6,0,2.9,1.2,3,2.8h4.2 c0.1-1.5,1.4-2.8,3-2.8s2.9,1.2,3,2.8h4.2c0.1-1.5,1.4-2.8,3-2.8c1.6,0,2.9,1.2,3,2.8h4.2c0.1-1.5,1.4-2.8,3-2.8 c1.6,0,2.9,1.2,3,2.8h4.2c0.1-1.5,1.4-2.8,3-2.8c1.6,0,2.9,1.2,3,2.8h4.2c0.1-1.5,1.4-2.8,3-2.8c1.6,0,2.9,1.2,3,2.8h4.2 c0.1-1.5,1.4-2.8,3-2.8c1.6,0,2.9,1.2,3,2.8h4.2c0.1-1.5,1.4-2.8,3-2.8s2.9,1.2,3,2.8h4.2c0.1-1.5,1.4-2.8,3-2.8 c1.6,0,2.9,1.2,3,2.8h0.6h3h1c0.1-1.5,1.4-2.8,3-2.8s2.9,1.2,3,2.8h4.2c0.1-1.1,0.8-2.1,1.8-2.5V1z" class="st0"/></svg>